<svg id="visual" viewBox="0 0 900 600" width="900" height="600" xmlns="http://www.w3.org/2000/svg" xmlns:xlink="http://www.w3.org/1999/xlink" version="1.1"><rect x="0" y="0" width="900" height="600" fill="#CCCCCC"></rect><defs><linearGradient id="grad1_0" x1="33.3%" y1="0%" x2="100%" y2="100%"><stop offset="20%" stop-color="#0066ff" stop-opacity="1"></stop><stop offset="80%" stop-color="#0066ff" stop-opacity="1"></stop></linearGradient></defs><defs><linearGradient id="grad1_1" x1="33.3%" y1="0%" x2="100%" y2="100%"><stop offset="20%" stop-color="#0066ff" stop-opacity="1"></stop><stop offset="80%" stop-color="#7986ef" stop-opacity="1"></stop></linearGradient></defs><defs><linearGradient id="grad1_2" x1="33.3%" y1="0%" x2="100%" y2="100%"><stop offset="20%" stop-color="#a8a8de" stop-opacity="1"></stop><stop offset="80%" stop-color="#7986ef" stop-opacity="1"></stop></linearGradient></defs><defs><linearGradient id="grad1_3" x1="33.3%" y1="0%" x2="100%" y2="100%"><stop offset="20%" stop-color="#a8a8de" stop-opacity="1"></stop><stop offset="80%" stop-color="#cccccc" stop-opacity="1"></stop></linearGradient></defs><defs><linearGradient id="grad2_0" x1="0%" y1="0%" x2="66.7%" y2="100%"><stop offset="20%" stop-color="#0066ff" stop-opacity="1"></stop><stop offset="80%" stop-color="#0066ff" stop-opacity="1"></stop></linearGradient></defs><defs><linearGradient id="grad2_1" x1="0%" y1="0%" x2="66.7%" y2="100%"><stop offset="20%" stop-color="#7986ef" stop-opacity="1"></stop><stop offset="80%" stop-color="#0066ff" stop-opacity="1"></stop></linearGradient></defs><defs><linearGradient id="grad2_2" x1="0%" y1="0%" x2="66.7%" y2="100%"><stop offset="20%" stop-color="#7986ef" stop-opacity="1"></stop><stop offset="80%" stop-color="#a8a8de" stop-opacity="1"></stop></linearGradient></defs><defs><linearGradient id="grad2_3" x1="0%" y1="0%" x2="66.7%" y2="100%"><stop offset="20%" stop-color="#cccccc" stop-opacity="1"></stop><stop offset="80%" stop-color="#a8a8de" stop-opacity="1"></stop></linearGradient></defs><g transform="translate(900, 0)"><path d="M0 486.7C-52.1 473.4 -104.3 460 -139.1 428C-173.8 395.9 -191.3 345.1 -235.1 323.6C-278.9 302.1 -349.2 309.8 -392.4 285.1C-435.6 260.4 -451.7 203.3 -462.9 150.4C-474.1 97.5 -480.4 48.8 -486.7 0L0 0Z" fill="#bbbad5"></path><path d="M0 365.1C-39.1 355 -78.2 345 -104.3 321C-130.4 296.9 -143.5 258.9 -176.3 242.7C-209.2 226.6 -261.9 232.3 -294.3 213.8C-326.7 195.3 -338.8 152.5 -347.2 112.8C-355.6 73.1 -360.3 36.6 -365.1 0L0 0Z" fill="#9397e7"></path><path d="M0 243.4C-26.1 236.7 -52.1 230 -69.5 214C-86.9 198 -95.6 172.6 -117.6 161.8C-139.5 151 -174.6 154.9 -196.2 142.5C-217.8 130.2 -225.9 101.7 -231.5 75.2C-237.1 48.8 -240.2 24.4 -243.4 0L0 0Z" fill="#5776f7"></path><path d="M0 121.7C-13 118.3 -26.1 115 -34.8 107C-43.5 99 -47.8 86.3 -58.8 80.9C-69.7 75.5 -87.3 77.4 -98.1 71.3C-108.9 65.1 -112.9 50.8 -115.7 37.6C-118.5 24.4 -120.1 12.2 -121.7 0L0 0Z" fill="#0066ff"></path></g><g transform="translate(0, 600)"><path d="M0 -486.7C46 -456.3 92 -425.8 127.6 -392.8C163.2 -359.7 188.4 -324.1 216.3 -297.7C244.2 -271.4 274.9 -254.3 322 -233.9C369.1 -213.6 432.7 -190 462.9 -150.4C493.1 -110.9 489.9 -55.4 486.7 0L0 0Z" fill="#bbbad5"></path><path d="M0 -365.1C34.5 -342.2 69 -319.4 95.7 -294.6C122.4 -269.8 141.3 -243.1 162.2 -223.3C183.2 -203.5 206.1 -190.7 241.5 -175.5C276.8 -160.2 324.5 -142.5 347.2 -112.8C369.8 -83.2 367.5 -41.6 365.1 0L0 0Z" fill="#9397e7"></path><path d="M0 -243.4C23 -228.1 46 -212.9 63.8 -196.4C81.6 -179.9 94.2 -162 108.2 -148.9C122.1 -135.7 137.4 -127.1 161 -117C184.6 -106.8 216.4 -95 231.5 -75.2C246.6 -55.4 245 -27.7 243.4 0L0 0Z" fill="#5776f7"></path><path d="M0 -121.7C11.5 -114.1 23 -106.5 31.9 -98.2C40.8 -89.9 47.1 -81 54.1 -74.4C61.1 -67.8 68.7 -63.6 80.5 -58.5C92.3 -53.4 108.2 -47.5 115.7 -37.6C123.3 -27.7 122.5 -13.9 121.7 0L0 0Z" fill="#0066ff"></path></g></svg>